# AST/ASF file generated using VICON BodyLanguage
# -----------------------------------------------
:version 1.10
:name VICON
:units
  mass 1.0
  length 0.45
  angle deg
:documentation
   .ast/.asf automatically generated from VICON data using
   VICON BodyBuilder and BodyLanguage model FoxedUp or BRILLIANT.MOD
:root
   order TX TY TZ RX RY RZ
   axis XYZ
   position 0 0 0  
   orientation 0 0 0 
:bonedata
  begin
     id 1 
     name lhipjoint
     direction 0.623529 -0.717805 0.309788 
     length 2.23224 
     axis 0 0 0  XYZ
  end
  begin
     id 2 
     name lfemur
     direction 0.34202 -0.939693 0  
     length 7.11402  
     axis 0 0 20  XYZ
    dof rx ry rz
    limits (-160.0 20.0)
           (-70.0 70.0)
           (-60.0 70.0)
  end
  begin
     id 3 
     name ltibia
     direction 0.34202 -0.939693 0   
     length 6.78496   
     axis 0 0 20   XYZ
    dof rx
    limits (-10.0 170.0)
  end
  begin
     id 4 
     name lfoot
     direction 0.125078 -0.343648 0.930732   
     length 1.84054   
     axis -90 7.62852e-016 20   XYZ
    dof rx rz
    limits (-45.0 90.0)
           (-70.0 20.0)
  end
  begin
     id 5 
     name ltoes
     direction 1.53565e-011 -4.21893e-011 1   
     length 0.916474   
     axis -90 7.62852e-016 20   XYZ
    dof rx
    limits (-90.0 20.0)
  end
  begin
     id 6 
     name rhipjoint
     direction -0.564688 -0.757748 0.327026   
     length 2.11457  
     axis 0 0 0  XYZ 
  end
  begin
     id 7 
     name rfemur
     direction -0.34202 -0.939693 0   
     length 7.14609   
     axis 0 0 -20   XYZ
    dof rx ry rz
    limits (-160.0 20.0)
           (-70.0 70.0)
           (-70.0 60.0)
  end
  begin
     id 8 
     name rtibia
     direction -0.34202 -0.939693 0   
     length 6.78101   
     axis 0 0 -20   XYZ
    dof rx
    limits (-10.0 170.0)
 end
 begin
     id 9 
     name rfoot
     direction -0.0992671 -0.272734 0.956955   
     length 1.96168  
     axis -90 -7.62852e-016 -20   XYZ
    dof rx rz
    limits (-45.0 90.0)
           (-20.0 70.0)
  end
  begin
     id 10 
     name rtoes
     direction -1.5356e-011 -4.21891e-011 1   
     length 0.982933   
     axis -90 -7.62852e-016 -20   XYZ
    dof rx
    limits (-90.0 20.0)
  end
  begin
     id 11 
     name lowerback
     direction -0.00596953 0.998668 0.0512524   
     length 1.87557   
     axis 0 0 0   XYZ
    dof rx ry rz
    limits (-20.0 45.0)
           (-30.0 30.0)
           (-30.0 30.0)
  end
  begin
     id 12 
     name upperback
     direction 0.00584879 0.999652 0.0257308   
     length 1.87883   
     axis 0 0 0   XYZ
    dof rx ry rz
    limits (-20.0 45.0)
           (-30.0 30.0)
           (-30.0 30.0)
  end
  begin
     id 13 
     name thorax
     direction 0.010104 0.999947 0.00178881   
     length 1.87779   
     axis 0 0 0   XYZ
    dof rx ry rz
    limits (-20.0 45.0)
           (-30.0 30.0)
           (-30.0 30.0)
  end
  begin
     id 14 
     name lowerneck
     direction 0.0120771 0.995934 -0.0892773   
     length 1.40897   
     axis 0 0 0   XYZ
    dof rx ry rz
    limits (-20.0 45.0)
           (-30.0 30.0)
           (-30.0 30.0)
  end
  begin
     id 15 
     name upperneck
     direction -0.030568 0.999465 -0.0116366   
     length 1.38661   
     axis 0 0 0   XYZ
    dof rx ry rz
    limits (-20.0 45.0)
           (-30.0 30.0)
           (-30.0 30.0)
  end
  begin
     id 16
     name head
     direction -0.0170715 0.999854 -0.00104426  
     length 1.47052  
     axis 0 0 0   XYZ
    dof rx ry rz
    limits (-20.0 45.0)
           (-30.0 30.0)
           (-30.0 30.0)
  end
  begin
     id 17 
     name lclavicle
     direction 0.977763 0.206143 0.038532  
     length 3.02424  
     axis 0 0 0   XYZ
    dof ry rz
    limits (-20.0 10.0)
           (0.0 20.0)
  end
  begin
     id 18 
     name lhumerus
     direction 1 -4.48965e-011 -2.62654e-027   
     length 4.68382   
     axis 180 -30 -90   XYZ
    dof rx ry rz
    limits (-60.0 90.0)
           (-90.0 90.0)
           (-90.0 90.0)
  end
  begin
     id 19
     name lradius
     direction 1 -4.48973e-011 -1.54954e-027   
     length 2.98124   
     axis 180 -30 -90   XYZ
    dof rx
    limits (-10.0 170.0)
  end
  begin
     id 20
     name lwrist
     direction 1 -4.48959e-011 7.20928e-028   
     length 1.49062   
     axis -5.52449e-016 90 90   XYZ
    dof ry
    limits (-180.0 0.0)
 end
  begin
     id 21 
     name lhand
     direction 1 -4.48971e-011 1.44186e-027   
     length 0.707595   
     axis -9.20027e-016 90 90   XYZ
    dof rx rz
    limits (-90.0 90.0)
           (-45.0 45.0)
  end
  begin
     id 22 
     name lfingers
     direction 1 -4.48985e-011 2.88371e-027   
     length 0.570481   
     axis -1.84005e-015 90 90   XYZ
    dof rx
    limits (0.0 90.0)
  end
  begin
     id 23
     name lthumb
     direction 0.707107 -6.34929e-011 0.707107   
     length 0.819101   
     axis -90 45 2.85299e-015   XYZ
    dof rx rz
    limits (-45.0 45.0)
           (-45.0 45.0)
  end
  begin
     id 24 
     name rclavicle
     direction -0.958661 0.284411 -0.00895327   
     length 3.11921  
     axis 0 0 0   XYZ 
    dof ry rz
    limits (-10.0 20.0)
           (-20.0 0.0)
  end
  begin
     id 25 
     name rhumerus
     direction -1 -4.48963e-011 -4.22193e-027  
     length 4.75876   
     axis 180 30 90   XYZ
    dof rx ry rz
    limits (-90.0 60.0)
           (-90.0 90.0)
           (-90.0 90.0)
  end
  begin
     id 26 
     name rradius
     direction -1 -4.48968e-011 -1.07616e-027   
     length 2.93293   
     axis 180 30 90   XYZ
    dof rx
    limits (-10.0 170.0)
  end
  begin
     id 27 
     name rwrist
     direction -1 -4.48965e-011 7.20928e-028   
     length 1.46647   
     axis -5.52449e-016 -90 -90   XYZ
    dof ry
    limits (-180.0 0.0)
  end
  begin
     id 28
     name rhand
     direction -1 -4.48971e-011 1.44186e-027   
     length 0.831748   
     axis -9.20027e-016 -90 -90   XYZ
    dof rx rz
    limits (-90.0 90.0)
           (-45.0 45.0)
  end
  begin
     id 29
     name rfingers
     direction -1 -4.48961e-011 2.88371e-027   
     length 0.670577   
     axis -1.84005e-015 -90 -90   XYZ
    dof rx
    limits (0.0 90.0)
  end
  begin
     id 30
     name rthumb
     direction -0.707107 -6.34929e-011 0.707107   
     length 0.962818   
     axis -90 -45 -2.85299e-015   XYZ
    dof rx rz
    limits (-45.0 45.0)
           (-45.0 45.0)
  end
:hierarchy
  begin
    root lhipjoint rhipjoint lowerback
    lhipjoint lfemur
    lfemur ltibia
    ltibia lfoot
    lfoot ltoes
    rhipjoint rfemur
    rfemur rtibia
    rtibia rfoot
    rfoot rtoes
    lowerback upperback
    upperback thorax
    thorax lowerneck lclavicle rclavicle
    lowerneck upperneck
    upperneck head
    lclavicle lhumerus
    lhumerus lradius
    lradius lwrist
    lwrist lhand lthumb
    lhand lfingers
    rclavicle rhumerus
    rhumerus rradius
    rradius rwrist
    rwrist rhand rthumb
    rhand rfingers
  end

#!OML:ASF E:\id_vita\Project 1\Capture day 1\Session 1\Female.ASF
:FULLY-SPECIFIED
:DEGREES
35
root -28.2937 16.0131 -0.254063 6.48195 86.4714 -15.306
lowerback -11.2128 -0.608967 -4.1853
upperback -2.32383 -0.248925 0.207782
thorax 3.87622 -0.13339 2.54325
lowerneck -1.53832 0.0742214 -3.26707
upperneck 14.1072 -0.0110805 4.42727
head 4.46499 0.168356 1.91054
rclavicle 7.35503e-015 -1.47101e-014
rhumerus -45.3721 -29.2193 -67.474
rradius 21.623
rwrist 19.1747
rhand -13.8835 9.3245
rfingers 7.12502
rthumb 12.2414 -20.2972
lclavicle 7.35503e-015 -1.47101e-014
lhumerus -84.2924 55.8278 10.9368
lradius 12.2187
lwrist -79.6245
lhand -5.36413 23.9052
lfingers 7.12502
lthumb 20.4435 52.849
rfemur -40.008 6.21323 18.3452
rtibia 52.4355
rfoot -10.7804 -20.5084
rtoes 4.13633
lfemur -27.3681 -10.7526 -22.9499
ltibia 32.4741
lfoot -26.72 12.0047
ltoes 11.3283
36
root -28.2411 16.0182 -0.265914 7.80622 86.4335 -13.8463
lowerback -11.1665 -0.595582 -4.26064
upperback -2.24843 -0.225725 0.210501
thorax 3.92798 -0.126205 2.5919
lowerneck -1.62599 0.093001 -3.01191
upperneck 14.1742 0.0320313 4.16587
head 4.49969 0.189466 1.7901
rclavicle 7.95139e-016 -3.97569e-015
rhumerus -45.6131 -29.6539 -67.0793
rradius 21.5436
rwrist 19.6206
rhand -14.0494 9.52775
rfingers 7.12502
rthumb 12.0815 -20.1035
lclavicle 7.95139e-016 -3.97569e-015
lhumerus -83.5988 56.2949 11.6846
lradius 12.1574
lwrist -79.5202
lhand -5.30121 23.8569
lfingers 7.12502
lthumb 20.504 52.7942
rfemur -40.4074 6.12701 18.4218
rtibia 52.698
rfoot -11.317 -20.3588
rtoes 5.08223
lfemur -26.8779 -10.7279 -23.1966
ltibia 32.2805
lfoot -26.898 12.0632
ltoes 11.596
37
root -28.1978 16.0199 -0.273308 5.39461 86.4658 -16.3967
lowerback -11.2161 -0.593686 -4.15093
upperback -2.31154 -0.23728 0.302188
thorax 3.89025 -0.128479 2.62426
lowerneck -1.662 0.0720333 -2.79573
upperneck 14.3487 0.026211 3.89638
head 4.56047 0.185867 1.67241
rclavicle -8.94531e-016 1.19271e-015
rhumerus -45.7463 -29.4577 -67.115
rradius 21.6699
rwrist 19.289
rhand -14.3093 9.26655
rfingers 7.12502
rthumb 11.8308 -20.3793
lclavicle -8.94531e-016 1.19271e-015
lhumerus -80.6001 56.3477 15.2914
lradius 12.2449
lwrist -77.7867
lhand -5.06087 24.3617
lfingers 7.12502
lthumb 20.7349 53.274
rfemur -41.1572 6.06009 18.7751
rtibia 52.789
rfoot -11.222 -20.3635
rtoes 5.5568
lfemur -26.7358 -10.7124 -23.0565
ltibia 32.0275
lfoot -26.858 11.9272
ltoes 11.5609
38
root -28.1577 16.0224 -0.27858 5.21334 86.5033 -16.5964
lowerback -11.1424 -0.592439 -4.17913
upperback -2.33757 -0.23744 0.33278
thorax 3.82253 -0.127003 2.67213
lowerneck -1.41057 0.139455 -2.82537
upperneck 14.0951 0.0993138 4.03792
head 4.43751 0.223617 1.72117
rclavicle 6.36111e-015 5.96354e-015
rhumerus -45.7664 -29.0198 -67.3848
rradius 21.8835
rwrist 18.6608
rhand -14.4726 8.62401
rfingers 7.12502
rthumb 11.6734 -21.0308
lclavicle 6.36111e-015 5.96354e-015
lhumerus -79.5381 56.6415 16.5136
lradius 12.2936
lwrist -77.9038
lhand -5.07339 23.9876
lfingers 7.12502
lthumb 20.7229 52.9012
rfemur -41.8202 5.84762 19.0438
rtibia 52.7285
rfoot -11.0848 -20.3157
rtoes 4.97745
lfemur -26.4687 -10.7806 -23.064
ltibia 31.7744
lfoot -26.6827 11.8638
ltoes 10.9758
39
root -28.114 16.0237 -0.284254 7.18784 86.4544 -14.4331
lowerback -10.9034 -0.626391 -4.25002
upperback -2.29031 -0.284759 0.26418
thorax 3.74349 -0.151321 2.63362
lowerneck -1.38024 0.212958 -2.66341
upperneck 14.1369 0.19604 3.98622
head 4.44217 0.277213 1.68265
rclavicle -4.47266e-015 -9.14409e-015
rhumerus -45.7976 -28.6935 -67.7221
rradius 22.0151
rwrist 18.401
rhand -14.6624 8.33507
rfingers 7.12502
rthumb 11.4903 -21.33
lclavicle -4.47266e-015 -9.14409e-015
lhumerus -77.3953 56.7607 18.8741
lradius 12.3552
lwrist -76.776
lhand -4.94616 24.2404
lfingers 7.12502
lthumb 20.8451 53.1405
rfemur -42.2836 5.57579 19.2221
rtibia 52.5316
rfoot -11.1003 -20.151
rtoes 4.11511
lfemur -25.9675 -10.9106 -23.2623
ltibia 31.5613
lfoot -26.5981 11.9358
ltoes 10.7507
40
root -28.0659 16.021 -0.289673 6.45375 86.3628 -15.0709
lowerback -10.7977 -0.690293 -4.16358
upperback -2.25074 -0.38709 0.289154
thorax 3.73391 -0.202785 2.59665
lowerneck -1.34703 0.290368 -2.57489
upperneck 14.0847 0.304266 3.90285
head 4.41754 0.328911 1.64607
rclavicle -1.2921e-015 -5.96354e-015
rhumerus -45.8121 -28.4017 -67.9482
rradius 22.0208
rwrist 18.3229
rhand -14.9026 8.54893
rfingers 7.12502
rthumb 11.2587 -21.1289
lclavicle -1.2921e-015 -5.96354e-015
lhumerus -73.8958 56.5111 23.0033
lradius 12.5446
lwrist -74.2601
lhand -4.65292 24.5561
lfingers 7.12502
lthumb 21.1269 53.425
rfemur -42.8118 5.51819 19.5474
rtibia 52.218
rfoot -10.8944 -20.1126
rtoes 3.09596
lfemur -25.5215 -10.9103 -23.2927
ltibia 31.3077
lfoot -26.5129 12.1036
ltoes 9.94447
41
root -28.0205 16.0202 -0.297866 4.81428 86.2952 -16.7734
lowerback -10.7891 -0.674785 -4.05447
upperback -2.27929 -0.383431 0.381933
thorax 3.69903 -0.198933 2.63256
lowerneck -1.34203 0.337226 -2.66855
upperneck 14.0952 0.369122 3.93337
head 4.41732 0.357712 1.67374
rclavicle -2.5842e-015 2.54444e-014
rhumerus -46.0556 -28.5909 -67.5798
rradius 21.9921
rwrist 18.4802
rhand -15.0163 8.73898
rfingers 7.12502
rthumb 11.1491 -20.9448
lclavicle -2.5842e-015 2.54444e-014
lhumerus -70.3126 56.1272 27.3415
lradius 12.694
lwrist -72.1599
lhand -4.64909 25.0076
lfingers 7.12502
lthumb 21.1305 53.8762
rfemur -43.4783 5.55087 19.8586
rtibia 51.8131
rfoot -10.7552 -19.8535
rtoes 2.42241
lfemur -25.2474 -10.8067 -23.255
ltibia 31.0157
lfoot -26.4654 12.1652
ltoes 9.22899
42
root -27.9752 16.024 -0.307943 5.24147 86.2456 -16.3559
lowerback -10.6464 -0.659276 -4.04645
upperback -2.34577 -0.372137 0.419383
thorax 3.55012 -0.18888 2.66898
lowerneck -1.42722 0.456412 -2.85047
upperneck 14.4239 0.532742 4.03358
head 4.52517 0.440004 1.74533
rclavicle 6.4605e-016 2.78299e-015
rhumerus -46.456 -29.2885 -66.771
rradius 21.7846
rwrist 19.2107
rhand -15.0602 8.60329
rfingers 7.12502
rthumb 11.1066 -21.0828
lclavicle 6.4605e-016 2.78299e-015
lhumerus -68.2942 55.996 29.7508
lradius 12.6641
lwrist -71.8489
lhand -5.5173 25.0834
lfingers 7.12502
lthumb 20.2963 54.0429
rfemur -44.0991 5.45902 20.0328
rtibia 51.2944
rfoot -10.8042 -19.3943
rtoes 1.92154
lfemur -24.9546 -10.9359 -23.3108
ltibia 30.7109
lfoot -26.536 12.0364
ltoes 10.1911
43
root -27.9237 16.0297 -0.313101 6.38737 86.1958 -15.0809
lowerback -10.4805 -0.695346 -4.20421
upperback -2.31037 -0.414726 0.482739
thorax 3.49993 -0.212179 2.81864
lowerneck -1.35711 0.433762 -2.92373
upperneck 14.4148 0.507981 4.01529
head 4.51141 0.422543 1.75037
rclavicle 8.19987e-015 -2.0276e-014
rhumerus -46.4977 -29.5774 -66.3932
rradius 21.4615
rwrist 19.7239
rhand -15.1943 8.12659
rfingers 7.12502
rthumb 10.9773 -21.5664
lclavicle 8.19987e-015 -2.0276e-014
lhumerus -69.4556 56.9789 28.2241
lradius 12.6093
lwrist -73.4466
lhand -6.02973 23.5419
lfingers 7.12502
lthumb 19.8038 52.553
rfemur -44.5113 5.5524 20.1069
rtibia 50.6459
rfoot -11.0888 -19.1171
rtoes 2.32345
lfemur -24.468 -11.0237 -23.4446
ltibia 30.3973
lfoot -26.6288 11.9412
ltoes 10.9617
44
root -27.8735 16.0375 -0.313702 5.52757 86.1749 -15.9302
lowerback -10.4425 -0.688308 -4.2836
upperback -2.29629 -0.402938 0.575716
thorax 3.49365 -0.207793 2.96225
lowerneck -1.44878 0.427696 -2.79715
upperneck 14.584 0.517166 3.83696
head 4.5798 0.426621 1.67684
rclavicle 4.32357e-015 -1.59028e-015
rhumerus -46.3507 -28.883 -66.8616
rradius 21.3759
rwrist 19.1742
rhand -15.3479 7.623
rfingers 7.12502
rthumb 10.8292 -22.0778
lclavicle 4.32357e-015 -1.59028e-015
lhumerus -68.7695 57.4492 28.8929
lradius 12.5965
lwrist -74.1169
lhand -5.84501 22.8728
lfingers 7.12502
lthumb 19.9813 51.8655
rfemur -45.0217 5.72623 20.308
rtibia 49.8737
rfoot -11.4643 -18.7689
rtoes 3.44868
lfemur -24.0967 -10.9042 -23.426
ltibia 30.0691
lfoot -26.5944 11.8528
ltoes 10.7917
